<svg width="385" height="36" viewBox="0 0 385 36" fill="none" xmlns="http://www.w3.org/2000/svg">
<path d="M44.6206 8.12988H36.7783V29.3836H40.2551V21.0433H44.6444C49.3915 21.0433 52.0096 18.7209 52.0096 14.5C52.0096 12.5836 51.288 8.12988 44.6146 8.12988H44.6206ZM48.4791 14.5597C48.4791 16.9538 47.2386 17.9329 44.1912 17.9329H40.2611V11.2702H44.6504C47.2267 11.2702 48.4791 12.3448 48.4791 14.5597ZM62.3686 13.903L62.631 14.0284L62.0406 17.1687L61.6351 17.0433C61.3011 16.9418 60.9671 16.8881 60.6272 16.8881C57.377 16.8881 57.1146 19.4791 57.1146 22.6135V29.3836H53.8942V13.7776H56.9178V15.6582C57.7408 14.3926 58.7367 13.7359 60.0428 13.5806C60.9015 13.4791 61.7365 13.5985 62.3746 13.903H62.3686ZM70.2884 13.4612C67.7538 13.4612 65.7202 14.4284 64.4142 16.2553C63.0425 18.1776 62.8397 20.4344 62.8397 21.6045C62.8397 26.5359 65.762 29.7239 70.2884 29.7239C75.787 29.7239 77.7371 25.2881 77.7371 21.4911C77.7371 19.306 77.0871 17.3239 75.9182 15.909C74.5883 14.309 72.6441 13.4612 70.2884 13.4612ZM70.2884 26.8463C67.7658 26.8463 66.2033 24.8403 66.2033 21.6105C66.2033 18.3806 67.7717 16.315 70.2884 16.315C72.8051 16.315 74.4034 18.3687 74.4034 21.5508C74.4034 24.7329 72.823 26.8463 70.2884 26.8463ZM104.812 13.903L105.075 14.0284L104.484 17.1687L104.079 17.0433C103.745 16.9418 103.411 16.8881 103.077 16.8881C99.8267 16.8881 99.5643 19.4791 99.5643 22.6135V29.3836H96.3439V13.7776H99.3675V15.6582C100.191 14.3926 101.186 13.7359 102.493 13.5806C103.351 13.4791 104.186 13.5985 104.818 13.903H104.812ZM116.382 24.3806L116.322 24.5538C115.648 26.4702 114.044 26.8762 112.81 26.8762C110.371 26.8762 108.802 25.2582 108.653 22.6254H119.674L119.716 22.3209C119.763 21.9627 119.758 21.4493 119.752 21.0791V20.7985C119.591 16.4284 116.746 13.497 112.673 13.497C110.293 13.497 108.343 14.4344 107.031 16.2075C105.969 17.6403 105.361 19.6224 105.361 21.6463C105.361 26.4702 108.355 29.712 112.816 29.712C116.263 29.712 118.636 27.9568 119.507 24.7747L119.608 24.3926H116.388V24.3806H116.382ZM108.76 19.8254C109.029 17.6642 110.508 16.2911 112.613 16.2911C114.217 16.2911 116.12 17.2284 116.388 19.8254H108.76ZM90.4697 15.0911C89.432 14.0105 88.0424 13.4672 86.3249 13.4672C81.5956 13.4672 79.4487 17.6284 79.4487 21.497C79.4487 25.3657 81.5778 29.4732 86.3249 29.4732C87.9112 29.4732 89.3246 28.8881 90.3444 27.8373C90.3325 28.5239 90.3146 29.1806 90.2967 29.4612C90.1238 32.0344 88.8833 33.2344 86.4084 33.2344C85.0606 33.2344 83.516 32.7568 83.2178 31.4135L83.1522 31.115H79.9795L80.0331 31.5388C80.3671 34.2911 82.7765 35.9985 86.3308 35.9985C89.4439 35.9985 91.6624 34.8224 92.7418 32.6015C93.2607 31.5329 93.5231 29.9687 93.5231 27.9627V13.7717H90.4756V15.0911H90.4697ZM86.5276 26.5896C85.4005 26.5896 82.7824 26.0762 82.7824 21.3538C82.7824 18.2493 84.2495 16.315 86.6111 16.315C88.436 16.315 90.3862 17.6403 90.3862 21.3538C90.3862 24.6314 88.9429 26.5896 86.5276 26.5896ZM134.631 24.6851C134.631 27.1687 132.574 29.6702 127.976 29.6702C123.908 29.6702 121.487 27.909 121.165 24.709L121.129 24.3806H124.302L124.35 24.6194C124.737 26.5418 126.568 26.9478 128.035 26.9478C129.645 26.9478 131.363 26.4284 131.363 24.9717C131.363 24.2373 130.886 23.712 129.938 23.4194C129.377 23.2523 128.691 23.0612 127.958 22.8523C126.705 22.5 125.405 22.1359 124.606 21.8612C122.626 21.1508 121.493 19.7717 121.493 18.0702C121.493 14.9239 124.552 13.515 127.582 13.515C131.637 13.515 133.736 15.0433 133.999 18.1896L134.023 18.512H130.898L130.856 18.2612C130.54 16.4523 128.745 16.1836 127.701 16.1836C126.801 16.1836 124.701 16.3448 124.701 17.8433C124.701 18.5239 125.28 19.0254 126.479 19.3717C126.836 19.4732 127.367 19.6105 127.976 19.7657C129.246 20.0941 130.832 20.506 131.631 20.7806C133.617 21.4791 134.625 22.7926 134.625 24.6851H134.631ZM149.511 24.6851C149.511 27.1687 147.453 29.6702 142.855 29.6702C138.788 29.6702 136.366 27.909 136.044 24.709L136.009 24.3806H139.181L139.229 24.6194C139.617 26.5418 141.448 26.9478 142.915 26.9478C144.525 26.9478 146.242 26.4284 146.242 24.9717C146.242 24.2373 145.765 23.712 144.817 23.4194C144.256 23.2523 143.565 23.0612 142.837 22.8523C141.585 22.5 140.285 22.1359 139.491 21.8612C137.511 21.1508 136.378 19.7717 136.378 18.0702C136.378 14.9239 139.438 13.515 142.467 13.515C146.523 13.515 148.622 15.0433 148.884 18.1896L148.914 18.512H145.789L145.747 18.2612C145.431 16.4523 143.636 16.1836 142.593 16.1836C141.692 16.1836 139.593 16.3448 139.593 17.8433C139.593 18.5239 140.171 19.0254 141.37 19.3717C141.728 19.4732 142.259 19.6105 142.873 19.7657C144.143 20.0941 145.73 20.506 146.529 20.7806C148.515 21.4791 149.522 22.7926 149.522 24.6851H149.511Z" fill="#4B4E52"/>
<path d="M152.057 15.4552C150.858 15.4552 149.862 14.5179 149.862 13.2343C149.862 11.9507 150.858 11.0134 152.057 11.0134C153.256 11.0134 154.252 11.9507 154.252 13.2343C154.252 14.5179 153.256 15.4552 152.057 15.4552ZM152.057 11.3836C151.061 11.3836 150.262 12.1478 150.262 13.2284C150.262 14.3089 151.061 15.0731 152.057 15.0731C153.053 15.0731 153.852 14.3089 153.852 13.2284C153.852 12.1478 153.053 11.3836 152.057 11.3836ZM151.801 13.6403V14.3806H151.145V12.0463H152.236C152.755 12.0463 153.095 12.3507 153.095 12.8582C153.095 13.2224 152.922 13.4672 152.647 13.5627L153.178 14.3746H152.451L152.003 13.6343H151.795L151.801 13.6403ZM152.164 12.5955H151.801V13.1149H152.164C152.361 13.1149 152.469 13.0194 152.469 12.8582C152.469 12.697 152.361 12.5895 152.164 12.5895V12.5955Z" fill="#4B4E52"/>
<path d="M157.007 8.44031H174.004V10.0403H166.352V29.3358H164.617V10.0403H157.001V8.44031H157.007Z" fill="#4B4E52"/>
<path d="M178.912 28.1478C180.611 28.1478 181.87 27.7418 183.164 26.6492V28.3149C182.043 29.2343 180.546 29.6403 178.78 29.6403C174.564 29.6403 171.743 26.6433 171.743 21.9149C171.743 17.1866 174.26 13.9149 178.274 13.9149C182.287 13.9149 184.255 16.9119 184.255 21.3V21.9149H173.407C173.407 25.9985 175.787 28.1418 178.918 28.1418H178.912V28.1478ZM173.467 20.5239H182.609C182.508 17.8672 181.249 15.4194 178.256 15.4194C175.775 15.4194 173.872 17.2582 173.461 20.5239H173.467Z" fill="#4B4E52"/>
<path d="M188.424 29.3358H186.724V7.21643H188.424V29.3358Z" fill="#4B4E52"/>
<path d="M198.18 28.1478C199.88 28.1478 201.138 27.7418 202.427 26.6492V28.3149C201.305 29.2343 199.809 29.6403 198.043 29.6403C193.827 29.6403 191.006 26.6433 191.006 21.9149C191.006 17.1866 193.523 13.9149 197.536 13.9149C201.55 13.9149 203.518 16.9119 203.518 21.3V21.9149H192.676C192.676 25.9985 195.055 28.1418 198.186 28.1418H198.18V28.1478ZM192.742 20.5239H201.884C201.783 17.8672 200.524 15.4194 197.53 15.4194C195.049 15.4194 193.147 17.2582 192.736 20.5239H192.742Z" fill="#4B4E52"/>
<path d="M213.066 15.7955C212.66 15.6224 212.213 15.5209 211.67 15.5209C209.834 15.5209 208.372 16.8463 207.657 18.7866V29.3358H205.957V14.2254H207.657V16.6433C208.337 15.1448 209.869 13.9209 211.736 13.9209C212.314 13.9209 212.72 14.0224 213.06 14.1239V15.7896H213.066V15.7955Z" fill="#4B4E52"/>
<path d="M215.75 10.7866C215.105 10.7866 214.593 10.2792 214.593 9.62842C214.593 9.0135 215.105 8.47021 215.75 8.47021C216.394 8.47021 216.907 9.0135 216.907 9.62842C216.907 10.2433 216.394 10.7866 215.75 10.7866ZM216.602 29.3359H214.903V14.2254H216.602V29.3359Z" fill="#4B4E52"/>
<path d="M231.685 29.3358H229.579L221.725 21.5746V29.3358H220.026V7.21643H221.725V20.8284L229.341 14.2254H231.553L223.496 21.1328L231.691 29.3358H231.685Z" fill="#4B4E52"/>
<path d="M235.99 15.4493C234.786 15.4493 233.79 14.512 233.79 13.2225C233.79 11.9329 234.786 10.9956 235.99 10.9956C237.195 10.9956 238.191 11.9329 238.191 13.2225C238.191 14.512 237.195 15.4493 235.99 15.4493ZM235.99 11.3717C234.994 11.3717 234.189 12.1419 234.189 13.2225C234.189 14.3031 234.994 15.0732 235.99 15.0732C236.986 15.0732 237.791 14.3031 237.791 13.2225C237.791 12.1419 236.986 11.3717 235.99 11.3717ZM235.734 13.6344V14.3747H235.078V12.0344H236.175C236.7 12.0344 237.04 12.3389 237.04 12.8523C237.04 13.2165 236.867 13.4613 236.593 13.5568L237.13 14.3747H236.402L235.955 13.6344H235.734ZM236.098 12.5896H235.734V13.115H236.098C236.295 13.115 236.402 13.0195 236.402 12.8583C236.402 12.6971 236.295 12.5896 236.098 12.5896Z" fill="#4B4E52"/>
<path d="M245.288 21.103V8.44031H247.023V20.8642C247.023 25.7657 249.677 28.0463 253.279 28.0463C256.881 28.0463 259.571 25.7657 259.571 20.8642V8.44031H261.306V21.103C261.306 26.8522 257.77 29.6463 253.285 29.6463C248.801 29.6463 245.294 26.8582 245.294 21.103H245.288Z" fill="#4B4E52"/>
<path d="M266.811 29.3358H265.076V8.44031H266.811V29.3358Z" fill="#4B4E52"/>
<path d="M284.994 8.78062C284.553 8.54182 284.04 8.4045 283.462 8.4045C281.863 8.4045 280.706 9.56271 280.706 11.6702V14.2194H284.243V15.6821H280.706V29.3299H279.043V15.6821H276.597V14.2194H279.043V11.497C279.043 8.73883 280.844 6.90002 283.295 6.90002C283.939 6.90002 284.487 7.00152 284.994 7.2045V8.78062Z" fill="#4B4E52"/>
<path d="M291.119 29.6463C287.141 29.6463 284.458 26.4463 284.458 21.7836C284.458 17.1209 287.141 13.9209 291.119 13.9209C295.097 13.9209 297.816 17.1209 297.816 21.7836C297.816 26.4463 295.133 29.6463 291.119 29.6463ZM291.119 15.4194C288.125 15.4194 286.157 17.9746 286.157 21.7836C286.157 25.5925 288.131 28.1478 291.119 28.1478C294.107 28.1478 296.117 25.5925 296.117 21.7836C296.117 17.9746 294.143 15.4194 291.119 15.4194Z" fill="#4B4E52"/>
<path d="M307.466 15.7955C307.06 15.6224 306.613 15.5209 306.07 15.5209C304.233 15.5209 302.772 16.8463 302.057 18.7866V29.3358H300.357V14.2254H302.057V16.6433C302.736 15.1448 304.269 13.9209 306.136 13.9209C306.714 13.9209 307.12 14.0224 307.46 14.1239V15.7896H307.466V15.7955Z" fill="#4B4E52"/>
<path d="M329.698 23.5866C329.698 27.2642 327.146 29.3358 322.9 29.3358H315.863V8.44031H322.256C326.538 8.44031 328.917 10.3806 328.917 13.8493C328.917 16.6075 327.283 17.9687 325.482 18.5119C328.064 18.9537 329.698 21.0672 329.698 23.5806V23.5866ZM322.256 17.8314C325.452 17.8314 327.217 16.5358 327.217 13.9149C327.217 11.294 325.452 9.99852 322.256 9.99852H317.562V17.8254H322.256V17.8314ZM317.562 27.7717H323.001C326.263 27.7717 327.963 26.106 327.963 23.5508C327.963 20.9955 326.263 19.3299 323.001 19.3299H317.562V27.7717Z" fill="#4B4E52"/>
<path d="M334.052 29.3358H332.352V7.21643H334.052V29.3358Z" fill="#4B4E52"/>
<path d="M346.027 18.8582C346.027 16.8164 344.602 15.491 342.288 15.491C340.552 15.491 339.127 16.0045 337.904 16.8164V15.1806C338.924 14.5 340.588 13.9209 342.461 13.9209C345.657 13.9209 347.661 15.7597 347.661 18.7507V29.3358H346.027V27.909C345.383 28.691 343.713 29.5746 341.846 29.5746C338.787 29.5746 336.27 27.8075 336.27 24.9119C336.27 22.0164 338.787 20.2851 341.912 20.2851C343.713 20.2851 345.347 21.1388 346.027 21.8851V18.8582ZM346.027 23.9627C345.55 22.6672 343.85 21.7179 342.013 21.7179C339.872 21.7179 337.899 22.7746 337.899 24.9179C337.899 27.0612 339.872 28.1537 342.013 28.1537C343.85 28.1537 345.55 27.1985 346.027 25.909V23.9687V23.9627Z" fill="#4B4E52"/>
<path d="M361.282 29.3358H349.653V29.1985L358.664 15.688H350.065V14.2253H361.318V14.3627L352.343 27.8731H361.282V29.3358Z" fill="#4B4E52"/>
<path d="M368.647 29.6463C364.67 29.6463 361.986 26.4463 361.986 21.7836C361.986 17.1209 364.67 13.9209 368.647 13.9209C372.625 13.9209 375.345 17.1209 375.345 21.7836C375.345 26.4463 372.661 29.6463 368.647 29.6463ZM368.647 15.4194C365.654 15.4194 363.686 17.9746 363.686 21.7836C363.686 25.5925 365.66 28.1478 368.647 28.1478C371.635 28.1478 373.645 25.5925 373.645 21.7836C373.645 17.9746 371.671 15.4194 368.647 15.4194Z" fill="#4B4E52"/>
<path d="M385 15.7955C384.594 15.6224 384.147 15.5209 383.604 15.5209C381.768 15.5209 380.307 16.8463 379.591 18.7866V29.3358H377.891V14.2254H379.591V16.6433C380.271 15.1448 381.803 13.9209 383.67 13.9209C384.249 13.9209 384.654 14.0224 384.994 14.1239V15.7896H385V15.7955Z" fill="#4B4E52"/>
<path d="M28.775 24.1478C28.775 24.4881 28.5364 24.906 28.2382 25.0731L20.7776 29.3836V12.7507L6.39311 4.4403L13.8537 0.129851C14.1459 -0.0432836 14.629 -0.0432836 14.9272 0.129851L28.775 8.13582V24.1478ZM17.5811 14.6075L7.72898 8.90597C7.43676 8.73881 6.9537 8.73881 6.65551 8.90597L0 12.7567L10.3888 18.7627V30.7746L17.0443 26.9239C17.3365 26.7507 17.5811 26.3328 17.5811 25.9925V14.6015V14.6075ZM0 24.7687L7.18629 28.9239V20.6075L0 24.7687Z" fill="#5CE500"/>
</svg>
